<svg xmlns="http://www.w3.org/2000/svg" width="800" height="800" viewBox="0 0 800 800" role="img" aria-label="Vipul Kumar profile placeholder">
  <defs>
    <linearGradient id="bg" x1="0" y1="0" x2="1" y2="1">
      <stop offset="0%" stop-color="#111a2d"/>
      <stop offset="100%" stop-color="#213b74"/>
    </linearGradient>
  </defs>
  <rect width="800" height="800" fill="url(#bg)"/>
  <g stroke="#395183" stroke-width="1" opacity="0.6">
    <path d="M0 100h800M0 200h800M0 300h800M0 400h800M0 500h800M0 600h800M0 700h800"/>
    <path d="M100 0v800M200 0v800M300 0v800M400 0v800M500 0v800M600 0v800M700 0v800"/>
  </g>
  <circle cx="400" cy="300" r="110" fill="#5a86dd" opacity="0.8"/>
  <rect x="220" y="450" width="360" height="180" rx="90" fill="#5a86dd" opacity="0.8"/>
  <text x="400" y="730" fill="#dce8ff" font-family="JetBrains Mono, monospace" font-size="34" text-anchor="middle">Replace with your provided photo</text>
</svg>
